<?xml version="1.0" encoding="iso-8859-1"?>
<!-- Uploaded to: SVG Repo, www.svgrepo.com, Generator: SVG Repo Mixer Tools -->
<svg height="800px" width="800px" version="1.1" id="Layer_1" xmlns="http://www.w3.org/2000/svg" xmlns:xlink="http://www.w3.org/1999/xlink" 
	 viewBox="0 0 392.533 392.533" xml:space="preserve">
<path style="fill:#FFFFFF;" d="M252.897,21.657c-64.582,0-117.139,39.176-117.139,87.337c0,52.105,55.402,162.263,117.139,162.263
	s117.139-110.222,117.139-162.263C370.036,60.832,317.543,21.657,252.897,21.657z"/>
<path style="fill:#56ACE0;" d="M252.962,249.535c-45.446,0-95.354-98.651-95.354-140.541c0-35.556,43.636-65.552,95.354-65.552
	s95.354,30.061,95.354,65.552C348.315,150.82,298.473,249.535,252.962,249.535z"/>
<path style="fill:#FFC10D;" d="M295.628,370.618c3.556,0,6.594-3.879,6.594-8.339v-27.992h-98.521v27.992
	c0,4.59,3.038,8.339,6.594,8.339H295.628z"/>
<g>
	<path style="fill:#194F82;" d="M252.897,0c-76.671,0-138.925,49.002-138.925,109.123c0,36.784,26.376,106.925,67.943,149.204
		v104.016c0,16.614,12.735,30.19,28.38,30.19h85.398c15.58,0,28.38-13.511,28.38-30.19V258.327
		c41.568-42.279,67.943-112.42,67.943-149.204C391.887,49.002,329.568,0,252.897,0z M263.822,23.531
		c25.471,8.145,45.382,44.024,45.382,85.592c0,51.523-23.402,133.624-45.382,156.251L263.822,23.531L263.822,23.531z
		 M242.036,23.531v241.907c-21.915-22.691-45.382-104.792-45.382-156.251C196.655,67.556,216.501,31.677,242.036,23.531z
		 M135.758,109.123c0-33.228,25.083-62.125,61.867-76.865c-14.093,19.717-22.82,46.933-22.82,76.865
		c0,30.901,11.442,99.943,33.681,144.097C166.917,219.863,135.758,148.105,135.758,109.123z M302.158,362.343
		c0,4.59-3.038,8.339-6.594,8.339H210.23c-3.556,0-6.594-3.879-6.594-8.339v-27.992h98.457v27.992H302.158z M302.158,312.566
		h-98.457v-35.749c15.127,10.279,31.677,16.485,49.196,16.485c17.519,0,34.069-6.206,49.196-16.485L302.158,312.566L302.158,312.566
		z M297.374,253.285c22.238-44.218,33.681-113.196,33.681-144.097c0-29.996-8.727-57.212-22.82-76.865
		c36.784,14.739,61.867,43.636,61.867,76.865C370.036,148.105,338.941,219.863,297.374,253.285z"/>
	<path style="fill:#194F82;" d="M30.513,45.899h59.992c6.012,0,10.925-4.848,10.925-10.925s-4.848-10.925-10.925-10.925H30.513
		c-6.012,0-10.925,4.848-10.925,10.925S24.501,45.899,30.513,45.899z"/>
	<path style="fill:#194F82;" d="M124.897,225.875H64.905c-6.012,0-10.925,4.848-10.925,10.925c0,6.012,4.848,10.925,10.925,10.925
		h59.992c6.012,0,10.925-4.848,10.925-10.925C135.758,230.723,130.909,225.875,124.897,225.875z"/>
	<path style="fill:#194F82;" d="M82.295,129.487c0-6.012-4.848-10.925-10.925-10.925H11.442c-6.012,0-10.925,4.848-10.925,10.925
		c0,6.012,4.848,10.925,10.925,10.925h59.992C77.446,140.412,82.295,135.499,82.295,129.487z"/>
</g>
</svg>